<?xml version="1.0" encoding="UTF-8"?>
<svg xmlns="http://www.w3.org/2000/svg" width="56" height="36" fill="none">
  <g clip-path="url(#clip0_3008_10823)" fill="#1A1A1A">
    <path d="M34.283 1H22.14v3.036h12.143V1zm-2.275 11.54a3.798 3.798 0 11-7.595.001 3.798 3.798 0 017.595 0zm-3.797-6.81a6.812 6.812 0 10.001 13.625 6.812 6.812 0 00-.001-13.625zm-7.629 19.06h3.357s3.488.047 3.036 3.33c0 0-.277 1.46-1.854 1.998l2.03 4.323h-1.767l-1.853-4.074h-1.372l.015 4.074h-1.592v-9.652zm1.59 1.536v2.452h1.825s.905.014 1.343-.702c0 0 .438-.934-.424-1.415 0 0-.38-.276-.992-.334h-1.751zM7.37 32.068l1.122 1.137a4.763 4.763 0 01-3.378 1.394c-2.639 0-4.8-1.914-4.8-4.923 0-2.884 1.997-4.923 4.8-4.923a4.71 4.71 0 013.378 1.41l-1.122 1.12a3.19 3.19 0 00-2.256-.93c-1.97 0-3.172 1.395-3.172 3.322 0 2.052 1.409 3.323 3.172 3.323.876 0 1.682-.354 2.256-.93zm11.15-7.246v5.73a4.71 4.71 0 01-.478 1.942c-.656 1.312-1.9 2.036-3.5 2.036s-2.844-.723-3.5-2.036a4.71 4.71 0 01-.479-1.942v-5.73h7.957zm-1.586 5.716v-4.116H12.15v4.13s.014.656.343 1.273c.396.75 1.066 1.107 2.05 1.107.999 0 1.67-.355 2.052-1.107.327-.618.34-1.273.34-1.287zm20.084 3.856h-1.615l-4.758-6.81v6.81h-1.6v-9.572h1.614l4.772 6.81v-6.81h1.587v9.572zm9.005-3.556a3.567 3.567 0 01-3.556 3.556 3.566 3.566 0 01-3.555-3.556c0-1.955 1.6-3.555 3.555-3.555s3.556 1.6 3.556 3.555zm-6.674-6.153h6.318v1.587h-6.318v-1.587zm5.087 6.153a1.96 1.96 0 00-1.969-1.97 1.96 1.96 0 00-1.969 1.97 1.96 1.96 0 001.97 1.97 1.96 1.96 0 001.968-1.97zm11.672 3.556h-1.614l-4.758-6.81v6.81h-1.601v-9.572h1.614l4.772 6.81v-6.81h1.587v9.572z"></path>
  </g>
  <defs>
    <clipPath id="clip0_3008_10823">
      <path fill="#fff" d="M0 0h56v36H0z"></path>
    </clipPath>
  </defs>
</svg>
