<svg version="1.1" id="Layer_1" xmlns="http://www.w3.org/2000/svg" xmlns:xlink="http://www.w3.org/1999/xlink" x="0px" y="0px"
	 width="100%" viewBox="0 0 496 496" enable-background="new 0 0 496 496" xml:space="preserve">
<path fill="#000000" opacity="1.000000" stroke="none" 
	d="
M233.023895,154.719147 
	C233.022842,173.302429 233.022842,191.474121 233.022842,209.645828 
	C232.380188,209.850693 231.737534,210.055557 231.094879,210.260422 
	C226.700317,205.803818 222.735046,200.787231 217.815247,197.015778 
	C209.469147,190.617737 206.972336,182.789398 207.476059,172.424347 
	C208.315887,155.143448 207.684219,137.791733 207.702591,120.469856 
	C207.709763,113.695442 210.304214,109.261772 215.628769,107.415543 
	C221.413544,105.409737 226.298523,107.050789 230.602081,111.361351 
	C260.132751,140.939987 289.719910,170.462219 319.299530,199.991959 
	C321.361969,202.050934 322.998199,204.620102 325.823792,205.983459 
	C327.195190,204.085983 326.592316,202.202316 326.595734,200.460449 
	C326.648224,173.811523 326.666534,147.162445 326.631134,120.513481 
	C326.623413,114.699570 328.378937,110.004120 334.116699,107.646553 
	C342.632935,104.147339 351.102173,109.644272 351.424103,118.837479 
	C351.482330,120.500031 351.375244,122.167664 351.383484,123.832764 
	C351.561707,159.803741 351.753998,195.774673 351.908386,231.745758 
	C351.918335,234.067795 351.713959,236.397842 351.487854,238.712311 
	C351.010590,243.597916 348.603912,247.131409 343.989380,249.032990 
	C339.016907,251.082047 334.409546,250.226776 330.508026,246.734467 
	C326.542786,243.185120 322.883698,239.292068 319.115875,235.524185 
	C292.271851,208.679398 265.440399,181.822037 238.577194,154.996445 
	C237.193268,153.614456 236.058670,151.874527 234.081055,151.189362 
	C232.678589,151.920914 233.192581,153.226883 233.023895,154.719147 
z"/>
<path fill="#000000" opacity="1.000000" stroke="none" 
	d="
M271.018311,362.055756 
	C267.512054,358.408112 266.827393,354.227997 266.831512,349.773499 
	C266.855682,323.609833 266.853302,297.446136 266.820251,271.282501 
	C266.818207,269.683533 267.357635,267.974304 265.856476,265.866119 
	C261.086487,270.571655 256.395477,275.153412 251.756027,279.786743 
	C244.683243,286.850220 237.671555,293.974945 230.586578,301.026123 
	C223.757782,307.822296 216.829742,307.821320 210.148254,301.126160 
	C203.910721,294.875885 197.753601,288.540833 191.370483,282.442596 
	C188.747131,279.936340 187.650543,277.250854 187.723038,273.634399 
	C187.908920,264.361511 187.785095,255.082443 187.785095,245.874069 
	C190.939209,245.199692 191.919754,247.369385 193.221298,248.641235 
	C201.204849,256.442688 209.145584,264.290924 216.950409,272.270477 
	C219.382004,274.756531 221.078033,274.671539 223.510147,272.227966 
	C238.198120,257.470734 253.008240,242.835083 267.782013,228.163315 
	C270.141571,225.820023 272.388550,223.360184 275.719788,222.275406 
	C284.204041,219.512650 292.120239,225.432251 292.169250,234.904404 
	C292.277039,255.734741 292.213959,276.565979 292.221375,297.396851 
	C292.227905,315.728058 292.207062,334.059357 292.254608,352.390472 
	C292.278412,361.568878 283.946777,367.520142 275.255829,364.382324 
	C273.867920,363.881226 272.609314,363.021851 271.018311,362.055756 
z"/>
<path fill="#000000" opacity="1.000000" stroke="none" 
	d="
M312.172974,338.146576 
	C311.066956,339.185822 310.238800,340.011780 309.322601,340.724579 
	C308.963135,341.004181 308.406555,341.030304 308.005951,341.151794 
	C306.410400,340.586823 306.721222,339.247620 306.716797,338.167267 
	C306.679810,329.169067 306.753479,320.170166 306.668304,311.172668 
	C306.644043,308.609253 307.693970,306.790375 309.441467,305.051025 
	C335.652802,278.962341 361.806519,252.815796 388.029968,226.739365 
	C393.864777,220.937286 400.510559,220.151276 405.996185,224.287979 
	C412.479279,229.176880 412.581055,237.670105 406.367279,243.884186 
	C390.936127,259.315979 375.556793,274.799591 360.171692,290.277405 
	C359.248444,291.206238 358.457458,292.266571 356.962982,294.018036 
	C365.105225,301.982941 373.187561,309.829742 381.201965,317.745331 
	C389.732330,326.170471 398.264069,334.596191 406.669556,343.145172 
	C412.279724,348.851166 412.437653,356.305115 407.331451,361.466766 
	C402.221344,366.632355 394.852112,366.643219 389.075531,360.977997 
	C373.735474,345.933807 358.472778,330.807129 343.414429,315.482178 
	C340.225922,312.237244 338.214844,311.880951 334.993774,315.250763 
	C327.631439,322.953033 319.960907,330.360687 312.172974,338.146576 
z"/>
<path fill="#000000" opacity="1.000000" stroke="none" 
	d="
M229.850891,245.775589 
	C222.266785,251.672653 216.520859,251.398148 210.177826,245.065598 
	C172.932129,207.881500 135.697220,170.686584 98.451485,133.502502 
	C96.567032,131.621170 94.460831,129.940750 92.725487,127.935219 
	C87.624825,122.040398 87.624512,114.767357 92.563568,109.926521 
	C97.285713,105.298271 105.811012,105.537910 111.092171,110.691559 
	C119.078461,118.485023 126.922028,126.424889 134.816483,134.312302 
	C165.799103,165.267273 196.785156,196.218826 227.751892,227.189667 
	C233.810883,233.249451 234.385773,238.071533 229.850891,245.775589 
z"/>
<path fill="#000000" opacity="1.000000" stroke="none" 
	d="
M148.082916,237.266022 
	C148.019531,230.310364 149.871643,224.939865 156.601273,222.526215 
	C162.069870,220.564850 167.120331,222.139359 171.431808,226.785126 
	C173.289017,228.786301 173.873337,231.075577 173.873642,233.632111 
	C173.878357,272.910828 173.936188,312.189758 173.814758,351.468109 
	C173.790131,359.436798 168.580154,364.872009 161.479919,365.229919 
	C154.290833,365.592316 149.159073,360.726929 148.259506,352.562286 
	C148.023483,350.420013 148.051529,348.242584 148.051682,346.081299 
	C148.054047,309.964539 148.071289,273.847809 148.082916,237.266022 
z"/>
<path fill="#000000" opacity="1.000000" stroke="none" 
	d="
M161.359619,409.916290 
	C158.886368,412.381744 158.449921,415.962280 156.726410,418.909363 
	C155.764114,420.554810 155.716248,423.249847 153.292709,423.369476 
	C150.689148,423.497955 150.677948,420.738617 149.842133,419.070251 
	C148.467422,416.326202 147.297226,413.479675 145.824722,410.194244 
	C144.005508,414.946930 146.871170,419.941681 143.328415,424.052490 
	C140.351303,421.665405 141.287262,418.786407 141.160263,416.326050 
	C140.963791,412.519928 141.221268,408.691162 141.260910,404.871735 
	C141.276855,403.335663 141.248367,401.738190 143.096985,401.221222 
	C145.070816,400.669159 146.226959,401.825470 147.019119,403.458313 
	C149.021942,407.586609 150.107376,412.167572 153.165771,416.314240 
	C156.188980,412.665161 156.963318,408.334381 158.911285,404.613220 
	C159.849640,402.820709 160.625824,400.700104 163.197098,401.370300 
	C165.566620,401.987915 165.117889,404.189209 165.148743,405.954865 
	C165.227142,410.440613 165.263382,414.928070 165.231766,419.414246 
	C165.219360,421.176971 165.302719,423.128723 162.298218,423.823334 
	C160.834824,419.191315 161.922745,414.575012 161.359619,409.916290 
z"/>
<path fill="#000000" opacity="1.000000" stroke="none" 
	d="
M125.965363,401.892578 
	C128.350861,400.651367 130.150360,401.153534 130.340637,403.497406 
	C130.881989,410.165955 131.114441,416.863190 129.909317,423.787109 
	C127.134026,422.126770 127.134026,422.126770 126.573631,409.633179 
	C123.962654,413.330383 123.042168,417.340057 121.324257,420.958099 
	C120.739357,422.189941 120.239716,423.516113 118.619255,423.488312 
	C117.036949,423.461151 116.430679,422.184784 115.884865,420.936859 
	C114.369217,417.471497 112.852249,414.006653 111.065674,409.924347 
	C109.300812,414.742523 111.706047,419.640106 109.133575,423.629272 
	C106.284897,422.761169 106.725983,420.874176 106.705925,419.301178 
	C106.648666,414.810577 106.647308,410.317810 106.725258,405.827667 
	C106.755318,404.095612 106.216957,401.858093 108.765686,401.374115 
	C111.347198,400.883820 112.142090,403.006134 112.993973,404.802551 
	C114.748322,408.502136 115.513504,412.676117 118.386421,416.396088 
	C122.179741,412.047485 122.588089,406.374481 125.965363,401.892578 
z"/>
<path fill="#000000" opacity="1.000000" stroke="none" 
	d="
M45.054901,420.691589 
	C46.748547,420.829956 48.221478,420.647186 48.630924,423.081512 
	C44.962719,424.772827 41.085213,424.341034 37.291985,423.510010 
	C35.479431,423.112946 35.719719,421.168457 35.703346,419.706360 
	C35.647469,414.716827 35.692295,409.726074 35.620594,404.736877 
	C35.594040,402.888977 35.909721,401.113678 38.044754,401.100830 
	C45.653233,401.055084 53.263474,401.207245 60.871315,401.367126 
	C61.375160,401.377686 61.864525,402.078217 62.978256,402.930481 
	C56.837399,404.718750 58.188080,409.369507 58.109818,413.463684 
	C58.074852,415.292603 58.215706,417.130493 58.083237,418.950256 
	C57.960594,420.634979 58.622562,423.288177 56.017433,423.217651 
	C53.482090,423.149048 54.131287,420.485291 54.083679,418.816742 
	C53.956001,414.341614 54.040123,409.860413 54.040123,405.265503 
	C49.984585,403.053833 45.820938,404.551117 41.790680,404.530212 
	C39.903896,404.520447 39.466572,406.105133 39.421356,407.737701 
	C39.370987,409.556427 40.260300,410.440521 42.054821,410.688873 
	C44.050545,410.964996 46.440830,409.950714 48.021042,412.404053 
	C46.763004,416.371399 36.911289,410.955261 40.392895,420.057159 
	C41.278770,421.142487 43.086216,420.419373 45.054901,420.691589 
z"/>
<path fill="#000000" opacity="1.000000" stroke="none" 
	d="
M257.903137,409.104340 
	C259.403046,411.087036 260.103821,413.235291 262.973236,415.223236 
	C262.973236,411.506775 262.912354,408.474030 262.998291,405.445465 
	C263.042999,403.870422 262.709930,401.653473 265.116882,401.710602 
	C267.114777,401.758057 266.955780,403.733887 266.964386,405.202057 
	C266.992554,410.021759 266.997986,414.842133 266.939880,419.661377 
	C266.922424,421.110504 267.155243,422.921265 265.354370,423.477356 
	C263.597656,424.019836 262.699341,422.541351 261.840271,421.300201 
	C258.920044,417.081024 256.004272,412.858734 252.092346,408.703125 
	C252.092346,412.235260 252.143860,415.768494 252.068863,419.299042 
	C252.035446,420.873077 252.473831,423.197357 250.212402,423.279205 
	C247.488724,423.377808 248.047989,420.806213 248.018906,419.135925 
	C247.937927,414.484406 247.996704,409.828583 248.102661,405.176788 
	C248.136032,403.712524 248.177765,402.027161 249.938843,401.422150 
	C251.904678,400.746826 253.049759,402.081848 254.042282,403.461548 
	C255.303741,405.215088 256.484711,407.026520 257.903137,409.104340 
z"/>
<path fill="#000000" opacity="1.000000" stroke="none" 
	d="
M67.533691,420.398224 
	C67.569046,422.110107 67.528465,423.570099 65.632828,423.535095 
	C64.141228,423.507507 63.808338,422.310425 63.800945,421.050476 
	C63.767761,415.395874 63.743526,409.741150 63.730030,404.086487 
	C63.727097,402.858826 63.991348,401.727722 65.371620,401.343994 
	C66.819069,400.941650 68.060173,401.445129 68.891769,402.611084 
	C70.820290,405.315002 72.664719,408.079498 74.513809,410.839172 
	C75.492989,412.300568 76.168076,414.022644 78.703011,415.336792 
	C78.703011,411.308197 78.688866,407.891907 78.710060,404.475800 
	C78.718391,403.131897 78.686829,401.575562 80.507774,401.455444 
	C82.474785,401.325684 82.391281,402.926392 82.397293,404.257721 
	C82.422028,409.735901 82.436371,415.214355 82.406433,420.692413 
	C82.400108,421.849426 82.335228,423.150757 80.933052,423.555359 
	C79.410088,423.994904 78.468193,423.090454 77.656296,421.907227 
	C74.767128,417.696503 71.838722,413.512695 68.580666,408.822784 
	C66.484299,412.888702 68.107208,416.597229 67.533691,420.398224 
z"/>
<path fill="#000000" opacity="1.000000" stroke="none" 
	d="
M471.955536,406.291565 
	C471.623077,402.071686 473.534607,400.668152 477.051605,400.997192 
	C479.198853,401.198059 481.394135,401.236664 483.473938,401.737823 
	C488.527954,402.955719 491.780426,407.358948 491.891327,412.762543 
	C491.984070,417.279419 488.639099,421.774139 484.014160,423.146423 
	C482.430115,423.616425 480.763153,423.913452 479.114807,424.041626 
	C472.768707,424.535095 471.935883,423.722351 471.913696,417.243927 
	C471.901703,413.748077 471.934509,410.252136 471.955536,406.291565 
M476.068726,408.904999 
	C476.091949,411.543579 476.095795,414.182495 476.146423,416.820557 
	C476.171906,418.146851 476.153107,419.703156 477.663513,420.178955 
	C480.990479,421.226959 483.858917,420.193024 486.076111,417.586121 
	C488.610901,414.605804 488.520813,409.903076 485.820099,407.183228 
	C483.482819,404.829407 480.688263,403.495453 477.345245,404.990631 
	C476.157837,405.521759 476.182007,406.879089 476.068726,408.904999 
z"/>
<path fill="#000000" opacity="1.000000" stroke="none" 
	d="
M397.632263,401.039978 
	C405.096466,402.476196 405.691620,403.187866 405.027344,410.630096 
	C404.869293,412.400635 406.178619,413.284943 406.618317,414.658752 
	C407.666809,417.934662 406.853607,420.833649 403.978699,422.422607 
	C400.440735,424.378021 396.459045,425.049622 392.659027,422.891052 
	C392.054871,422.547852 391.850372,421.120087 391.833679,420.187073 
	C391.741913,415.056488 391.807251,409.923309 391.737152,404.792114 
	C391.681641,400.728607 394.481964,400.959564 397.632263,401.039978 
M396.438263,419.971680 
	C398.693726,421.133820 400.652161,420.594269 402.208374,418.749725 
	C403.010895,417.798462 403.050018,416.555206 402.258820,415.512756 
	C401.105652,413.993378 399.364075,413.761017 397.746765,414.206482 
	C394.804901,415.016754 395.245087,417.226105 396.438263,419.971680 
M396.126404,405.887146 
	C395.668793,408.092255 394.478302,410.828033 398.573364,410.376648 
	C400.202606,410.197021 402.004944,409.140076 401.449005,407.156250 
	C400.748535,404.656647 398.786407,404.137878 396.126404,405.887146 
z"/>
<path fill="#000000" opacity="1.000000" stroke="none" 
	d="
M414.475220,402.049683 
	C422.098694,399.556061 428.362061,401.975281 431.078705,408.154297 
	C433.256073,413.106689 431.087799,419.336792 426.136078,422.355865 
	C420.731964,425.650787 413.988068,424.448578 410.066315,419.491211 
	C405.624878,413.876862 407.292603,406.755157 414.475220,402.049683 
M427.624756,410.192871 
	C425.995178,406.030823 423.184906,403.609680 418.490875,404.359344 
	C414.602264,404.980347 412.314087,407.542694 411.626190,411.263550 
	C410.958527,414.875153 412.536041,417.725098 415.653137,419.636963 
	C418.277039,421.246368 421.066956,421.180237 423.701355,419.800354 
	C427.246155,417.943604 428.162598,414.716797 427.624756,410.192871 
z"/>
<path fill="#000000" opacity="1.000000" stroke="none" 
	d="
M214.431610,410.645752 
	C218.648712,411.129364 220.443512,409.640564 220.069000,405.615051 
	C219.924637,404.063385 219.839035,402.183167 222.008194,401.561066 
	C224.036118,401.960327 224.050522,403.602692 224.070435,405.049652 
	C224.139114,410.041870 224.136719,415.036316 224.064545,420.028503 
	C224.043945,421.452942 224.204636,423.369995 222.003189,423.299988 
	C220.250061,423.244232 220.266510,421.595734 220.069733,420.289368 
	C219.078979,413.711548 219.077911,413.711700 211.860779,414.258301 
	C210.350708,416.234985 211.078064,418.686127 210.711395,420.917084 
	C210.517532,422.096619 210.586288,423.479980 209.068573,423.553864 
	C207.329819,423.638489 206.921844,422.234222 206.910156,420.808746 
	C206.866516,415.482391 206.838242,410.155396 206.877518,404.829193 
	C206.888153,403.386963 206.721588,401.456970 208.892822,401.533478 
	C210.913483,401.604614 210.725586,403.479889 210.979431,404.940399 
	C211.364868,407.157867 209.198578,410.800323 214.431610,410.645752 
z"/>
<path fill="#000000" opacity="1.000000" stroke="none" 
	d="
M341.948700,412.020142 
	C341.950500,409.544769 341.876678,407.546906 341.970520,405.556976 
	C342.044647,403.985809 341.605896,401.769989 343.916443,401.628510 
	C346.320923,401.481232 345.957184,403.686218 346.178986,405.283630 
	C346.375458,406.698639 345.704437,408.254608 346.794983,409.555420 
	C351.318909,408.221802 351.491089,401.150940 357.334076,401.015717 
	C357.929871,404.233368 356.055176,405.746521 354.576935,407.033264 
	C350.494141,410.587189 350.808563,413.814758 354.388733,417.477875 
	C355.823334,418.945679 357.380310,420.588562 357.729950,423.621887 
	C352.165680,424.062836 351.869293,417.481873 347.918488,416.656860 
	C345.717590,417.547638 346.443542,419.494141 346.118683,421.002563 
	C345.862915,422.190460 345.617584,423.387543 344.093140,423.368347 
	C342.592560,423.349457 342.147430,422.167969 342.094208,420.969635 
	C341.968994,418.150116 341.985962,415.324310 341.948700,412.020142 
z"/>
<path fill="#000000" opacity="1.000000" stroke="none" 
	d="
M458.379089,400.990143 
	C459.620483,401.001221 460.455383,400.976135 461.281647,401.048920 
	C465.060089,401.381805 468.620087,402.141388 470.065002,406.324127 
	C471.602661,410.775360 469.183838,413.584656 465.803467,415.731598 
	C466.251129,418.663086 469.237091,420.120422 469.270905,423.701965 
	C463.090027,423.161041 463.030548,416.939758 459.367218,415.105103 
	C460.352875,412.173859 462.467896,413.004120 463.859619,412.314941 
	C465.886047,411.311432 467.071777,409.787354 466.372345,407.520905 
	C465.613892,405.063080 463.416748,404.522552 461.175110,404.464325 
	C458.641968,404.398529 458.296417,406.219482 458.284027,408.203369 
	C458.258057,412.357788 458.273865,416.513000 458.187836,420.666168 
	C458.160522,421.985321 458.035736,423.599457 456.155609,423.438538 
	C454.672577,423.311584 454.600067,421.916016 454.599304,420.728821 
	C454.595886,415.243103 454.679626,409.756470 454.599762,404.272095 
	C454.564209,401.832062 455.827515,401.041016 458.379089,400.990143 
z"/>
<path fill="#000000" opacity="1.000000" stroke="none" 
	d="
M244.252197,423.499817 
	C241.629517,421.634827 242.244553,417.294739 238.235336,417.096741 
	C234.705414,416.922394 231.166946,416.407043 229.813843,421.071320 
	C229.387619,422.540558 228.435486,424.251038 225.896149,423.234344 
	C225.309723,420.136261 227.324448,417.691956 228.369202,415.050323 
	C229.893066,411.197327 231.598862,407.407959 233.404770,403.677490 
	C234.857422,400.676727 237.050995,399.831604 238.729660,403.291199 
	C241.476379,408.951904 243.803818,414.818573 246.227341,420.631989 
	C246.859268,422.147858 247.000610,423.681885 244.252197,423.499817 
M234.609909,413.283447 
	C235.889160,413.658051 237.483627,414.024963 237.965790,412.524811 
	C238.525620,410.783020 237.596359,409.221252 236.090027,407.953125 
	C234.723282,409.547028 233.683929,410.923950 234.609909,413.283447 
z"/>
<path fill="#000000" opacity="1.000000" stroke="none" 
	d="
M435.424713,422.194824 
	C433.082581,423.948761 431.238403,423.826721 432.332825,420.849792 
	C434.558990,414.794403 437.291199,408.915771 440.018890,403.059265 
	C440.934723,401.092834 443.248016,400.322174 444.383301,402.353027 
	C448.034210,408.884033 450.976959,415.767487 453.261444,422.791840 
	C450.503571,424.250427 449.809021,422.760071 449.018890,421.511078 
	C444.574280,414.485291 439.539307,414.633575 435.424713,422.194824 
M441.343018,409.350952 
	C441.110291,410.298401 440.534515,411.321594 440.723145,412.175995 
	C441.025482,413.545380 442.326691,413.747467 443.521820,413.318909 
	C445.032654,412.777100 445.007111,411.193115 444.261963,410.510956 
	C443.569580,409.877106 444.454285,405.883972 441.343018,409.350952 
z"/>
<path fill="#000000" opacity="1.000000" stroke="none" 
	d="
M104.589615,420.430481 
	C105.103867,422.012665 105.143105,423.248718 103.585648,423.519226 
	C102.191040,423.761475 101.531418,422.566406 101.081497,421.487610 
	C99.779480,418.365601 98.279175,416.122833 94.092606,416.691040 
	C91.500168,417.042847 89.739319,417.480255 88.653267,420.012604 
	C87.931511,421.695465 87.337631,423.998444 84.183929,423.164612 
	C83.602394,419.975677 85.788185,417.570374 86.767395,414.905304 
	C88.142807,411.161896 89.913963,407.563873 91.515305,403.903442 
	C92.151436,402.449341 93.015373,401.235443 94.824631,401.408722 
	C96.372490,401.556946 96.982178,402.766113 97.526772,404.035858 
	C99.823792,409.391479 102.147079,414.735809 104.589615,420.430481 
M96.334419,410.434143 
	C95.828873,409.660431 95.824409,408.489807 94.515549,408.239960 
	C93.115746,409.410767 92.386719,410.872009 92.679779,412.983551 
	C94.664497,413.606873 96.595146,414.471924 96.334419,410.434143 
z"/>
<path fill="#000000" opacity="1.000000" stroke="none" 
	d="
M306.354858,402.487457 
	C307.944458,400.997345 309.528168,400.850342 310.391449,402.453979 
	C313.940674,409.047058 316.805908,415.932587 319.655914,424.064575 
	C313.875427,423.123108 314.337524,416.355042 308.372711,416.600555 
	C302.841827,416.828247 303.037628,422.943604 297.705139,423.968842 
	C299.728546,415.896240 303.280304,409.461365 306.354858,402.487457 
M306.423798,411.741669 
	C306.893188,414.292908 308.950592,414.209167 309.989532,412.965698 
	C311.653809,410.973907 309.898499,409.205688 308.469635,407.133972 
	C307.679535,408.769287 307.114105,409.939545 306.423798,411.741669 
z"/>
<path fill="#000000" opacity="1.000000" stroke="none" 
	d="
M191.608856,423.994690 
	C183.593262,420.456604 180.634384,414.002960 183.669281,407.466003 
	C186.370163,401.648468 193.798645,399.073273 199.864853,401.987366 
	C202.050919,403.037506 204.210129,404.333771 204.375732,407.220093 
	C202.046692,408.776123 200.858765,407.022705 199.429810,406.016541 
	C195.642258,403.349609 191.659302,403.719971 188.713318,406.970398 
	C185.710358,410.283722 185.605820,414.409760 188.437927,417.835785 
	C191.241211,421.226868 195.139832,421.693054 199.136230,419.144806 
	C200.589127,418.218353 201.695908,416.336365 203.891495,417.301788 
	C203.389847,422.403381 199.792297,424.445953 191.608856,423.994690 
z"/>
<path fill="#000000" opacity="1.000000" stroke="none" 
	d="
M282.301575,423.150818 
	C274.953644,418.095520 273.368988,412.184845 277.390289,405.994293 
	C280.720062,400.868286 287.820374,399.270538 293.313263,402.477264 
	C295.010864,403.468323 296.818359,404.478729 296.812286,406.878632 
	C295.264252,408.556610 294.108337,407.207123 292.894684,406.481201 
	C287.712677,403.381409 284.248962,403.555664 281.356903,407.069550 
	C278.577911,410.445984 278.582916,414.880890 281.369476,418.050049 
	C284.375763,421.469177 288.192871,421.619507 292.942261,418.474213 
	C294.157196,417.669647 295.233521,416.390533 296.888763,417.562714 
	C295.805084,423.127563 290.168274,425.395172 282.301575,423.150818 
z"/>
<path fill="#000000" opacity="1.000000" stroke="none" 
	d="
M358.888977,404.363037 
	C361.264465,400.168671 368.079926,399.650269 371.772400,403.007660 
	C370.342804,405.030273 368.172638,404.197876 366.333405,404.342804 
	C364.378448,404.496918 363.200409,405.168304 363.132080,407.285614 
	C363.060272,409.512299 363.954803,410.681488 366.303253,410.747437 
	C368.025787,410.795837 369.956787,410.319336 371.503326,412.055511 
	C370.641357,414.848694 368.314819,414.027069 366.573212,414.156647 
	C364.434265,414.315704 363.090790,414.973389 363.120331,417.382660 
	C363.148407,419.670563 364.220642,420.588745 366.495483,420.682037 
	C368.316620,420.756714 370.555328,419.917084 372.098389,422.838318 
	C368.270844,424.792236 364.302673,424.645355 360.703583,423.433105 
	C357.748657,422.437836 359.020111,419.114990 358.921234,416.771118 
	C358.753510,412.794586 358.868683,408.806152 358.888977,404.363037 
z"/>
<path fill="#000000" opacity="1.000000" stroke="none" 
	d="
M176.897995,404.329773 
	C173.958923,404.375397 171.253723,404.117767 171.422668,407.979370 
	C171.573273,411.421722 174.153839,410.585632 176.170273,410.770386 
	C177.725510,410.912872 179.556488,410.450317 180.354065,412.755768 
	C178.146423,415.340332 174.885376,413.332275 172.124588,414.814392 
	C172.213516,416.793671 170.084045,419.456360 173.918091,420.571716 
	C176.042099,421.189667 178.567917,419.887054 181.124344,422.437347 
	C177.372070,425.106354 173.468842,424.246643 169.893951,423.654449 
	C167.025574,423.179260 167.768478,420.323486 167.735519,418.263611 
	C167.669174,414.114502 167.909393,409.952209 167.664337,405.816620 
	C167.440002,402.031097 169.058258,400.612244 172.625916,401.008972 
	C175.276581,401.303711 178.266541,400.027863 180.472794,402.461212 
	C180.089127,404.531525 178.552658,404.156006 176.897995,404.329773 
z"/>
<path fill="#000000" opacity="1.000000" stroke="none" 
	d="
M22.808647,405.904236 
	C23.942965,403.860992 23.880487,401.032440 27.338623,401.683594 
	C28.455338,404.727478 26.177032,406.981232 25.302427,409.471344 
	C23.926832,413.387878 22.234129,417.198761 20.553478,421.000336 
	C19.571600,423.221313 17.406940,425.299500 15.863461,422.429047 
	C12.386969,415.963715 9.503550,409.132019 8.291551,401.579407 
	C14.045948,404.893677 13.855436,411.922363 17.936749,417.036652 
	C19.595800,413.255707 21.132425,409.753784 22.808647,405.904236 
z"/>
<path fill="#000000" opacity="1.000000" stroke="none" 
	d="
M379.999084,421.383179 
	C380.734161,413.679596 374.882507,408.638824 372.984497,401.320648 
	C379.577606,401.697601 378.257385,408.645020 381.989166,410.653809 
	C385.296173,408.295776 384.652130,402.168243 389.997162,401.322205 
	C391.245117,403.992096 389.601410,405.313202 388.830811,406.854919 
	C386.622955,411.272003 383.709534,415.328339 383.810760,420.708038 
	C383.864624,423.568878 382.302826,424.820129 379.999084,421.383179 
z"/>
<path fill="#000000" opacity="1.000000" stroke="none" 
	d="
M324.965210,410.936035 
	C324.965546,412.059113 325.061066,412.738220 324.949493,413.381439 
	C324.057861,418.522614 325.182709,421.843506 331.415833,420.851013 
	C331.907990,420.772644 332.507660,421.369293 333.783478,422.025909 
	C330.165192,425.308746 326.343903,424.229156 322.949341,423.729828 
	C320.041779,423.302124 320.856781,420.396790 320.814941,418.365204 
	C320.722870,413.895416 320.739319,409.422089 320.796875,404.951324 
	C320.815338,403.517792 320.657135,401.623627 322.824921,401.670502 
	C324.866394,401.714600 324.857391,403.554138 324.940369,405.012268 
	C325.043732,406.827881 324.964722,408.653900 324.965210,410.936035 
z"/>
<path fill="#000000" opacity="1.000000" stroke="none" 
	d="
M33.109650,410.078186 
	C32.773159,414.973083 34.085674,419.602997 32.123032,423.804443 
	C29.345240,423.535980 29.158865,421.919037 29.134062,420.470764 
	C29.043489,415.182251 29.054022,409.890991 29.106680,404.601593 
	C29.121719,403.090729 29.367691,401.312347 31.407774,401.496033 
	C33.102314,401.648651 33.032330,403.320343 33.069668,404.635010 
	C33.116592,406.287292 33.092716,407.941589 33.109650,410.078186 
z"/>
<path fill="#000000" opacity="1.000000" stroke="none" 
	d="
M273.288727,415.327087 
	C273.302460,417.729767 273.388336,419.726349 273.319397,421.717590 
	C273.282898,422.772095 272.754944,423.685883 271.530701,423.705566 
	C270.251587,423.726166 269.812469,422.745483 269.801880,421.708984 
	C269.740753,415.722260 269.736755,409.734863 269.741913,403.747681 
	C269.742798,402.701202 270.026917,401.632599 271.288055,401.587891 
	C272.796967,401.534424 273.233093,402.716553 273.254089,403.945221 
	C273.316528,407.602234 273.288940,411.260803 273.288727,415.327087 
z"/>
</svg>